<svg width="1200" height="800" viewBox="0 0 1200 800" fill="none" xmlns="http://www.w3.org/2000/svg">
  <defs>
    <linearGradient id="bg" x1="0" y1="0" x2="1200" y2="800" gradientUnits="userSpaceOnUse">
      <stop stop-color="#003857" stop-opacity="0.12"/>
      <stop offset="1" stop-color="#FEA520" stop-opacity="0.12"/>
    </linearGradient>
  </defs>
  <rect x="40" y="40" width="1120" height="720" rx="36" fill="url(#bg)" stroke="#E5E8E8" stroke-width="8"/>
  <rect x="120" y="150" width="520" height="500" rx="28" fill="#FFFFFF" stroke="#E5E8E8" stroke-width="6"/>
  <rect x="170" y="210" width="420" height="56" rx="16" fill="#F4F6F8"/>
  <rect x="170" y="292" width="280" height="20" rx="10" fill="#E5E8E8"/>
  <rect x="170" y="328" width="360" height="20" rx="10" fill="#E5E8E8"/>
  <rect x="170" y="390" width="420" height="120" rx="22" fill="#F4F6F8"/>
  <rect x="170" y="542" width="220" height="48" rx="16" fill="#003857"/>
  <rect x="700" y="210" width="360" height="440" rx="28" fill="#FFFFFF" stroke="#E5E8E8" stroke-width="6"/>
  <path d="M760 360C760 302.01 807.01 255 865 255H895C952.99 255 1000 302.01 1000 360V620H760V360Z" fill="#003857" fill-opacity="0.08"/>
  <path d="M805 420C805 397.909 822.909 380 845 380H915C937.091 380 955 397.909 955 420V620H805V420Z" fill="#FEA520" fill-opacity="0.22"/>
  <rect x="760" y="620" width="240" height="46" rx="18" fill="#F4F6F8"/>
  <circle cx="240" cy="232" r="18" fill="#FEA520"/>
  <circle cx="290" cy="232" r="18" fill="#003857" fill-opacity="0.35"/>
  <circle cx="340" cy="232" r="18" fill="#003857" fill-opacity="0.2"/>
</svg>

